<svg width="202" height="79" viewBox="0 0 202 79" fill="none" xmlns="http://www.w3.org/2000/svg">
<ellipse cx="101" cy="39.4756" rx="101" ry="39.3618" fill="#1938DD"/>
<path d="M78.0938 44.9323H75.832V37.0455H67.2305V44.9323H64.9805V27.8698H67.2305V35.2057H75.832V27.8698H78.0938V44.9323ZM81.1758 38.4752C81.1758 37.233 81.418 36.1158 81.9023 35.1237C82.3945 34.1315 83.0742 33.3658 83.9414 32.8268C84.8164 32.2877 85.8125 32.0182 86.9297 32.0182C88.6562 32.0182 90.0508 32.6158 91.1133 33.8112C92.1836 35.0065 92.7188 36.5963 92.7188 38.5807V38.733C92.7188 39.9674 92.4805 41.0768 92.0039 42.0612C91.5352 43.0377 90.8594 43.7994 89.9766 44.3463C89.1016 44.8932 88.0938 45.1666 86.9531 45.1666C85.2344 45.1666 83.8398 44.569 82.7695 43.3737C81.707 42.1783 81.1758 40.5963 81.1758 38.6276V38.4752ZM83.3555 38.733C83.3555 40.1393 83.6797 41.2682 84.3281 42.1198C84.9844 42.9713 85.8594 43.3971 86.9531 43.3971C88.0547 43.3971 88.9297 42.9674 89.5781 42.108C90.2266 41.2408 90.5508 40.0299 90.5508 38.4752C90.5508 37.0846 90.2188 35.9596 89.5547 35.1002C88.8984 34.233 88.0234 33.7994 86.9297 33.7994C85.8594 33.7994 84.9961 34.2252 84.3398 35.0768C83.6836 35.9283 83.3555 37.1471 83.3555 38.733ZM106.664 41.944L109.102 32.2526H111.27L107.578 44.9323H105.82L102.738 35.3229L99.7383 44.9323H97.9805L94.3008 32.2526H96.457L98.9531 41.7448L101.906 32.2526H103.652L106.664 41.944ZM117.996 38.569H112.277V36.7994H117.996V38.569ZM123.059 29.1823V32.2526H125.426V33.9283H123.059V41.7916C123.059 42.2994 123.164 42.6823 123.375 42.9401C123.586 43.1901 123.945 43.3151 124.453 43.3151C124.703 43.3151 125.047 43.2682 125.484 43.1744V44.9323C124.914 45.0885 124.359 45.1666 123.82 45.1666C122.852 45.1666 122.121 44.8737 121.629 44.2877C121.137 43.7018 120.891 42.8698 120.891 41.7916V33.9283H118.582V32.2526H120.891V29.1823H123.059ZM127.16 38.4752C127.16 37.233 127.402 36.1158 127.887 35.1237C128.379 34.1315 129.059 33.3658 129.926 32.8268C130.801 32.2877 131.797 32.0182 132.914 32.0182C134.641 32.0182 136.035 32.6158 137.098 33.8112C138.168 35.0065 138.703 36.5963 138.703 38.5807V38.733C138.703 39.9674 138.465 41.0768 137.988 42.0612C137.52 43.0377 136.844 43.7994 135.961 44.3463C135.086 44.8932 134.078 45.1666 132.938 45.1666C131.219 45.1666 129.824 44.569 128.754 43.3737C127.691 42.1783 127.16 40.5963 127.16 38.6276V38.4752ZM129.34 38.733C129.34 40.1393 129.664 41.2682 130.312 42.1198C130.969 42.9713 131.844 43.3971 132.938 43.3971C134.039 43.3971 134.914 42.9674 135.562 42.108C136.211 41.2408 136.535 40.0299 136.535 38.4752C136.535 37.0846 136.203 35.9596 135.539 35.1002C134.883 34.233 134.008 33.7994 132.914 33.7994C131.844 33.7994 130.98 34.2252 130.324 35.0768C129.668 35.9283 129.34 37.1471 129.34 38.733Z" fill="black"/>
</svg>
